<svg width="60" height="30" viewBox="0 0 60 30" fill="none" xmlns="http://www.w3.org/2000/svg">
<path d="M0 6.66315H5.89662C8.53861 10.1734 12.3676 13.1279 17.0006 15.1463V19.6512C9.03638 17.5743 2.71857 12.7476 0 6.66315Z" fill="#00B1AB"/>
<path d="M17.0007 6.66315V15.1463C12.4059 13.1279 8.53863 10.2027 5.89664 6.66315H17.0007Z" fill="#00529B"/>
<path d="M17.0006 6.66314H5.89662C4.51819 4.82024 3.44608 2.80182 2.79515 0.695648H9.22782C13.5163 0.695648 17.0006 3.35762 17.0006 6.66314Z" fill="#00B1AB"/>
<path d="M24.8118 12.6014V17.5158C22.0549 16.9892 19.4129 16.1994 17.0007 15.1463V6.66315C21.3274 6.66315 24.8118 9.32512 24.8118 12.6014Z" fill="#F39A18"/>
<path d="M17.0007 0.695648C17.843 3.65014 20.9062 5.99033 24.8118 6.66314V0.695648H17.0007Z" fill="#00B1AB"/>
<path d="M37.8302 8.06724V14.0932H35.418V8.06724H32.8526V6.66313H40.3956V8.06724H37.8302ZM52.9929 7.33593C53.6439 6.9264 54.6777 6.54612 55.8647 6.54612C58.6598 6.54612 60 8.03799 60 10.2027C60 12.9231 58.0089 14.3273 55.0989 14.3273C52.2271 14.3273 50.6956 12.9231 50.6956 9.73463C50.6956 7.07266 51.4996 5.25901 52.6866 4.38144C53.529 3.73789 54.5245 3.41611 56.1327 3.09433C57.1282 2.88957 58.0855 2.77256 58.4684 2.65555L59.349 4.17667C58.8513 4.41069 57.9706 4.55695 56.2093 4.82023C54.1416 5.142 53.1844 5.6978 52.9929 7.33593ZM55.2137 12.8061C56.8219 12.8061 57.3963 11.8115 57.3963 10.4074C57.3963 9.12033 56.8985 8.09649 55.2903 8.09649C54.4097 8.09649 53.7205 8.27201 53.261 8.56453C53.1461 9.03257 53.1844 9.82238 53.1844 10.2904C53.1461 11.8115 53.797 12.8061 55.2137 12.8061ZM47.4026 14.1225L44.148 10.6415V14.1225H41.6975V6.66313H44.148V9.91014L47.058 6.66313H49.7383L46.5986 10.0272L50.3127 14.1225H47.4026Z" fill="#00529B"/>
</svg>
